<svg viewBox="0 0 300 400" xmlns="http://www.w3.org/2000/svg">
  <defs>
    <linearGradient id="cleanGrad" x1="0%" y1="0%" x2="100%" y2="100%">
      <stop offset="0%" style="stop-color:#1a1a24" />
      <stop offset="50%" style="stop-color:#2a2a3a" />
      <stop offset="100%" style="stop-color:#1a1a24" />
    </linearGradient>
    <linearGradient id="accentGrad" x1="0%" y1="0%" x2="100%" y2="100%">
      <stop offset="0%" style="stop-color:#00d4ff" />
      <stop offset="100%" style="stop-color:#8b5cf6" />
    </linearGradient>
    <filter id="glow">
      <feGaussianBlur stdDeviation="2" result="coloredBlur"/>
      <feMerge>
        <feMergeNode in="coloredBlur"/>
        <feMergeNode in="SourceGraphic"/>
      </feMerge>
    </filter>
  </defs>

  <rect width="300" height="400" fill="url(#cleanGrad)"/>

  <!-- Architecture diagram -->
  <g transform="translate(50, 60)">
    <!-- Core circle -->
    <circle cx="100" cy="80" r="25" fill="none" stroke="url(#accentGrad)" stroke-width="3" filter="url(#glow)"/>
    <text x="100" y="85" text-anchor="middle" fill="#00d4ff" font-family="Inter, sans-serif" font-size="12" font-weight="600">Core</text>

    <!-- Outer layers -->
    <circle cx="100" cy="80" r="50" fill="none" stroke="#8b5cf6" stroke-width="2" opacity="0.6" stroke-dasharray="5,5"/>
    <circle cx="100" cy="80" r="75" fill="none" stroke="#f471b5" stroke-width="2" opacity="0.4" stroke-dasharray="10,5"/>

    <!-- Components -->
    <rect x="30" y="20" width="40" height="20" fill="#10b981" opacity="0.7" rx="4"/>
    <text x="50" y="33" text-anchor="middle" fill="#f0f4ff" font-family="Inter, sans-serif" font-size="9">UI</text>

    <rect x="130" y="20" width="40" height="20" fill="#10b981" opacity="0.7" rx="4"/>
    <text x="150" y="33" text-anchor="middle" fill="#f0f4ff" font-family="Inter, sans-serif" font-size="9">API</text>

    <rect x="30" y="140" width="40" height="20" fill="#f471b5" opacity="0.7" rx="4"/>
    <text x="50" y="153" text-anchor="middle" fill="#f0f4ff" font-family="Inter, sans-serif" font-size="9">DB</text>

    <rect x="130" y="140" width="40" height="20" fill="#f471b5" opacity="0.7" rx="4"/>
    <text x="150" y="153" text-anchor="middle" fill="#f0f4ff" font-family="Inter, sans-serif" font-size="9">EXT</text>

    <!-- Arrows -->
    <path d="M70,30 Q85,55 85,65" stroke="#00d4ff" stroke-width="2" fill="none" opacity="0.6"/>
    <path d="M130,30 Q115,55 115,65" stroke="#00d4ff" stroke-width="2" fill="none" opacity="0.6"/>
    <path d="M70,150 Q85,125 85,95" stroke="#00d4ff" stroke-width="2" fill="none" opacity="0.6"/>
    <path d="M130,150 Q115,125 115,95" stroke="#00d4ff" stroke-width="2" fill="none" opacity="0.6"/>
  </g>

  <!-- Title area -->
  <rect x="20" y="280" width="260" height="80" fill="rgba(0,212,255,0.1)" rx="8"/>
  <text x="150" y="305" text-anchor="middle" fill="#00d4ff" font-family="Inter, sans-serif" font-size="18" font-weight="800">CLEAN</text>
  <text x="150" y="325" text-anchor="middle" fill="#8b5cf6" font-family="Inter, sans-serif" font-size="18" font-weight="800">ARCHITECTURE</text>
  <text x="150" y="345" text-anchor="middle" fill="#f0f4ff" font-family="Inter, sans-serif" font-size="12" font-weight="500">Robert C. Martin</text>
</svg>

