<svg viewBox="0 0 400 240" xmlns="http://www.w3.org/2000/svg">
  <defs>
    <linearGradient id="dockerGrad" x1="0%" y1="0%" x2="100%" y2="100%">
      <stop offset="0%" style="stop-color:#0099e0;stop-opacity:0.8" />
      <stop offset="50%" style="stop-color:#00d4ff;stop-opacity:0.6" />
      <stop offset="100%" style="stop-color:#8b5cf6;stop-opacity:0.8" />
    </linearGradient>
    <filter id="glow">
      <feGaussianBlur stdDeviation="3" result="coloredBlur"/>
      <feMerge>
        <feMergeNode in="coloredBlur"/>
        <feMergeNode in="SourceGraphic"/>
      </feMerge>
    </filter>
    <filter id="smallGlow">
      <feGaussianBlur stdDeviation="1.5" result="coloredBlur"/>
      <feMerge>
        <feMergeNode in="coloredBlur"/>
        <feMergeNode in="SourceGraphic"/>
      </feMerge>
    </filter>
  </defs>

  <rect width="400" height="240" fill="#1a1a24"/>
  <rect width="400" height="240" fill="url(#dockerGrad)" opacity="0.1"/>

  <!-- Docker containers visualization -->
  <g transform="translate(40, 30)">
    <!-- Main Docker engine/host -->
    <rect x="0" y="0" width="320" height="140" fill="#0a0a0f" stroke="#00d4ff" stroke-width="2" rx="12" filter="url(#glow)" opacity="0.8"/>

    <!-- Docker logo inspiration - whale shape -->
    <g transform="translate(20, 20)">
      <ellipse cx="15" cy="15" rx="12" ry="8" fill="#0099e0" opacity="0.6" filter="url(#smallGlow)"/>
      <rect x="8" y="12" width="14" height="6" fill="#00d4ff" opacity="0.8" rx="2"/>
      <!-- Containers on whale -->
      <rect x="10" y="8" width="3" height="3" fill="#f0f4ff" rx="0.5"/>
      <rect x="14" y="8" width="3" height="3" fill="#f0f4ff" rx="0.5"/>
      <rect x="18" y="8" width="3" height="3" fill="#f0f4ff" rx="0.5"/>
    </g>

    <!-- Container stack visualization -->
    <g transform="translate(60, 25)">
      <!-- Container 1 -->
      <rect x="0" y="0" width="60" height="35" fill="#8b5cf6" opacity="0.3" stroke="#8b5cf6" stroke-width="1" rx="4" filter="url(#smallGlow)"/>
      <text x="30" y="20" text-anchor="middle" fill="#f0f4ff" font-family="Inter, sans-serif" font-size="10" font-weight="600">web-app</text>
      <text x="30" y="30" text-anchor="middle" fill="#f0f4ff" font-family="Inter, sans-serif" font-size="8" opacity="0.7">:latest</text>

      <!-- Container 2 -->
      <rect x="70" y="0" width="60" height="35" fill="#10b981" opacity="0.3" stroke="#10b981" stroke-width="1" rx="4" filter="url(#smallGlow)"/>
      <text x="100" y="20" text-anchor="middle" fill="#f0f4ff" font-family="Inter, sans-serif" font-size="10" font-weight="600">database</text>
      <text x="100" y="30" text-anchor="middle" fill="#f0f4ff" font-family="Inter, sans-serif" font-size="8" opacity="0.7">:postgres</text>

      <!-- Container 3 -->
      <rect x="140" y="0" width="60" height="35" fill="#f471b5" opacity="0.3" stroke="#f471b5" stroke-width="1" rx="4" filter="url(#smallGlow)"/>
      <text x="170" y="20" text-anchor="middle" fill="#f0f4ff" font-family="Inter, sans-serif" font-size="10" font-weight="600">redis</text>
      <text x="170" y="30" text-anchor="middle" fill="#f0f4ff" font-family="Inter, sans-serif" font-size="8" opacity="0.7">:alpine</text>
    </g>

    <!-- Docker commands/terminal section -->
    <g transform="translate(20, 70)">
      <rect x="0" y="0" width="280" height="50" fill="#0a0a0f" stroke="#00d4ff" stroke-width="1" rx="6" opacity="0.6"/>

      <!-- Terminal prompt -->
      <text x="10" y="15" fill="#10b981" font-family="JetBrains Mono, monospace" font-size="10" font-weight="600">$</text>
      <text x="20" y="15" fill="#00d4ff" font-family="JetBrains Mono, monospace" font-size="10" opacity="0.9">docker-compose up -d</text>

      <!-- Status messages -->
      <text x="10" y="28" fill="#8b5cf6" font-family="JetBrains Mono, monospace" font-size="8" opacity="0.8">✓ Creating network...</text>
      <text x="10" y="40" fill="#10b981" font-family="JetBrains Mono, monospace" font-size="8" opacity="0.8">✓ Starting containers... [3/3]</text>
    </g>

    <!-- Network connections -->
    <g stroke="#00d4ff" stroke-width="1" opacity="0.5" fill="none">
      <!-- Connection lines between containers -->
      <path d="M 90 45 Q 110 55 130 45" stroke-dasharray="2,2" filter="url(#smallGlow)"/>
      <path d="M 160 45 Q 180 55 200 45" stroke-dasharray="2,2" filter="url(#smallGlow)"/>

      <!-- Port indicators -->
      <circle cx="90" cy="60" r="2" fill="#10b981" filter="url(#smallGlow)"/>
      <circle cx="160" cy="60" r="2" fill="#f471b5" filter="url(#smallGlow)"/>
      <circle cx="230" cy="60" r="2" fill="#8b5cf6" filter="url(#smallGlow)"/>
    </g>

    <!-- Status indicators -->
    <g transform="translate(260, 25)">
      <circle cx="0" cy="5" r="3" fill="#10b981" filter="url(#smallGlow)"/>
      <text x="10" y="8" fill="#f0f4ff" font-family="Inter, sans-serif" font-size="8" opacity="0.8">Running</text>

      <circle cx="0" cy="20" r="3" fill="#10b981" filter="url(#smallGlow)"/>
      <text x="10" y="23" fill="#f0f4ff" font-family="Inter, sans-serif" font-size="8" opacity="0.8">Healthy</text>

      <circle cx="0" cy="35" r="3" fill="#00d4ff" filter="url(#smallGlow)"/>
      <text x="10" y="38" fill="#f0f4ff" font-family="Inter, sans-serif" font-size="8" opacity="0.8">Linked</text>
    </g>
  </g>

  <!-- Floating Docker elements -->
  <g opacity="0.3">
    <!-- Small container icons -->
    <rect x="320" y="50" width="8" height="6" fill="#8b5cf6" rx="1" filter="url(#smallGlow)"/>
    <rect x="330" y="45" width="8" height="6" fill="#00d4ff" rx="1" filter="url(#smallGlow)"/>
    <rect x="340" y="55" width="8" height="6" fill="#10b981" rx="1" filter="url(#smallGlow)"/>

    <!-- Docker layers visualization -->
    <g transform="translate(25, 190)">
      <rect x="0" y="0" width="30" height="3" fill="#00d4ff" opacity="0.6" rx="1"/>
      <rect x="0" y="5" width="25" height="3" fill="#8b5cf6" opacity="0.6" rx="1"/>
      <rect x="0" y="10" width="28" height="3" fill="#10b981" opacity="0.6" rx="1"/>
      <rect x="0" y="15" width="22" height="3" fill="#f471b5" opacity="0.6" rx="1"/>
    </g>
  </g>

  <!-- Background geometric elements -->
  <g opacity="0.1">
    <polygon points="350,20 370,30 360,50 340,40" fill="#00d4ff"/>
    <polygon points="30,200 50,210 40,230 20,220" fill="#8b5cf6"/>
    <polygon points="370,180 390,190 380,210 360,200" fill="#10b981"/>
  </g>
</svg>
