<svg viewBox="0 0 300 400" xmlns="http://www.w3.org/2000/svg">
  <defs>
    <linearGradient id="pythonGrad2" x1="0%" y1="0%" x2="100%" y2="100%">
      <stop offset="0%" style="stop-color:#1a1a24" />
      <stop offset="30%" style="stop-color:#2563eb" />
      <stop offset="70%" style="stop-color:#7c3aed" />
      <stop offset="100%" style="stop-color:#1a1a24" />
    </linearGradient>
    <filter id="glow">
      <feGaussianBlur stdDeviation="2" result="coloredBlur"/>
      <feMerge>
        <feMergeNode in="coloredBlur"/>
        <feMergeNode in="SourceGraphic"/>
      </feMerge>
    </filter>
  </defs>

  <rect width="300" height="400" fill="url(#pythonGrad2)"/>

  <!-- Python logo inspired design -->
  <g transform="translate(100, 60)">
    <!-- Snake-like curves -->
    <path d="M0,20 Q25,0 50,20 Q75,40 100,20 Q90,50 75,70 Q50,80 25,70 Q0,50 0,20"
          fill="#00d4ff" opacity="0.8" filter="url(#glow)"/>
    <path d="M20,40 Q35,25 50,40 Q65,55 80,40 Q75,65 65,80 Q50,85 35,80 Q20,65 20,40"
          fill="#f471b5" opacity="0.6"/>
  </g>

  <!-- Code snippets visualization -->
  <g transform="translate(40, 150)" fill="#10b981" opacity="0.8">
    <rect x="0" y="0" width="80" height="4" rx="2" filter="url(#glow)"/>
    <rect x="0" y="8" width="60" height="4" rx="2"/>
    <rect x="0" y="16" width="70" height="4" rx="2"/>
    <rect x="0" y="24" width="50" height="4" rx="2"/>

    <rect x="100" y="0" width="70" height="4" rx="2" filter="url(#glow)"/>
    <rect x="100" y="8" width="55" height="4" rx="2"/>
    <rect x="100" y="16" width="65" height="4" rx="2"/>
    <rect x="100" y="24" width="45" height="4" rx="2"/>

    <rect x="180" y="0" width="60" height="4" rx="2" filter="url(#glow)"/>
    <rect x="180" y="8" width="40" height="4" rx="2"/>
    <rect x="180" y="16" width="50" height="4" rx="2"/>
  </g>

  <!-- Best practices icons -->
  <g transform="translate(70, 200)">
    <circle cx="0" cy="0" r="12" fill="#8b5cf6" opacity="0.7" filter="url(#glow)"/>
    <text x="0" y="4" text-anchor="middle" fill="#f0f4ff" font-family="Inter, sans-serif" font-size="16" font-weight="700">✓</text>

    <circle cx="40" cy="0" r="12" fill="#00d4ff" opacity="0.7" filter="url(#glow)"/>
    <text x="40" y="4" text-anchor="middle" fill="#f0f4ff" font-family="Inter, sans-serif" font-size="16" font-weight="700">⚡</text>

    <circle cx="80" cy="0" r="12" fill="#f471b5" opacity="0.7" filter="url(#glow)"/>
    <text x="80" y="4" text-anchor="middle" fill="#f0f4ff" font-family="Inter, sans-serif" font-size="16" font-weight="700">🐍</text>

    <circle cx="120" cy="0" r="12" fill="#10b981" opacity="0.7" filter="url(#glow)"/>
    <text x="120" y="4" text-anchor="middle" fill="#f0f4ff" font-family="Inter, sans-serif" font-size="16" font-weight="700">📈</text>
  </g>

  <!-- Performance visualization -->
  <g transform="translate(60, 250)">
    <rect x="0" y="0" width="180" height="30" fill="rgba(0,212,255,0.1)" rx="6"/>
    <rect x="5" y="5" width="170" height="20" fill="none" stroke="#00d4ff" stroke-width="1" rx="4" opacity="0.6"/>
    <rect x="10" y="8" width="120" height="14" fill="#10b981" rx="3" opacity="0.8" filter="url(#glow)"/>
    <text x="90" y="18" text-anchor="middle" fill="#f0f4ff" font-family="Inter, sans-serif" font-size="8" font-weight="600">EFFECTIVE</text>
  </g>

  <!-- Title -->
  <rect x="20" y="300" width="260" height="80" fill="rgba(139,92,246,0.1)" rx="8"/>
  <text x="150" y="325" text-anchor="middle" fill="#8b5cf6" font-family="Inter, sans-serif" font-size="18" font-weight="800">EFFECTIVE</text>
  <text x="150" y="345" text-anchor="middle" fill="#00d4ff" font-family="Inter, sans-serif" font-size="18" font-weight="800">PYTHON</text>
  <text x="150" y="370" text-anchor="middle" fill="#f0f4ff" font-family="Inter, sans-serif" font-size="12" font-weight="500">Brett Slatkin</text>
</svg>

