<svg viewBox="0 0 400 240" xmlns="http://www.w3.org/2000/svg">
  <defs>
    <linearGradient id="obsGrad" x1="0%" y1="0%" x2="100%" y2="100%">
      <stop offset="0%" style="stop-color:#10b981;stop-opacity:0.8" />
      <stop offset="50%" style="stop-color:#00d4ff;stop-opacity:0.6" />
      <stop offset="100%" style="stop-color:#8b5cf6;stop-opacity:0.8" />
    </linearGradient>
    <filter id="glow">
      <feGaussianBlur stdDeviation="3" result="coloredBlur"/>
      <feMerge>
        <feMergeNode in="coloredBlur"/>
        <feMergeNode in="SourceGraphic"/>
      </feMerge>
    </filter>
  </defs>

  <rect width="400" height="240" fill="#1a1a24"/>
  <rect width="400" height="240" fill="url(#obsGrad)" opacity="0.1"/>

  <!-- Monitor/Dashboard visualization -->
  <g transform="translate(50, 40)">
    <!-- Main monitor -->
    <rect x="0" y="0" width="120" height="80" fill="#0a0a0f" stroke="#00d4ff" stroke-width="2" rx="8" filter="url(#glow)"/>

    <!-- Metrics lines -->
    <g fill="#10b981" opacity="0.8">
      <rect x="10" y="10" width="100" height="2" rx="1"/>
      <rect x="10" y="20" width="80" height="2" rx="1"/>
      <rect x="10" y="30" width="90" height="2" rx="1"/>
      <rect x="10" y="40" width="70" height="2" rx="1"/>
    </g>

    <!-- Graph visualization -->
    <polyline points="10,65 25,55 40,45 55,40 70,35 85,30 100,25 110,20"
              stroke="#00d4ff" stroke-width="2" fill="none" filter="url(#glow)"/>

    <!-- Side panels -->
    <rect x="140" y="10" width="60" height="25" fill="#8b5cf6" opacity="0.3" rx="4"/>
    <rect x="140" y="45" width="60" height="25" fill="#f471b5" opacity="0.3" rx="4"/>

    <!-- Logs visualization -->
    <g transform="translate(220, 10)" fill="#f0f4ff" opacity="0.4">
      <rect x="0" y="0" width="80" height="4" rx="2"/>
      <rect x="0" y="8" width="60" height="4" rx="2"/>
      <rect x="0" y="16" width="70" height="4" rx="2"/>
      <rect x="0" y="24" width="50" height="4" rx="2"/>
      <rect x="0" y="32" width="65" height="4" rx="2"/>
    </g>
  </g>

  <!-- Alert/notification icons -->
  <g transform="translate(80, 140)" fill="#f471b5" opacity="0.7">
    <circle cx="0" cy="0" r="8" filter="url(#glow)"/>
    <circle cx="30" cy="0" r="6" opacity="0.8"/>
    <circle cx="60" cy="0" r="5" opacity="0.6"/>
  </g>

  <text x="200" y="200" text-anchor="middle" fill="#f0f4ff" font-family="Inter, sans-serif" font-size="20" font-weight="700" opacity="0.9">Observability</text>
</svg>

