<svg viewBox="0 0 400 240" xmlns="http://www.w3.org/2000/svg">
  <defs>
    <linearGradient id="placeholderGrad" x1="0%" y1="0%" x2="100%" y2="100%">
      <stop offset="0%" style="stop-color:#00d4ff;stop-opacity:0.8" />
      <stop offset="50%" style="stop-color:#8b5cf6;stop-opacity:0.6" />
      <stop offset="100%" style="stop-color:#f471b5;stop-opacity:0.8" />
    </linearGradient>
    <filter id="glow">
      <feGaussianBlur stdDeviation="3" result="coloredBlur"/>
      <feMerge>
        <feMergeNode in="coloredBlur"/>
        <feMergeNode in="SourceGraphic"/>
      </feMerge>
    </filter>
  </defs>

  <rect width="400" height="240" fill="#1a1a24"/>
  <rect width="400" height="240" fill="url(#placeholderGrad)" opacity="0.1"/>

  <!-- Placeholder content visualization -->
  <g transform="translate(50, 50)">
    <!-- Main content area -->
    <rect x="0" y="0" width="300" height="140" fill="#0a0a0f" stroke="#00d4ff" stroke-width="2" rx="12" filter="url(#glow)" opacity="0.8"/>

    <!-- Content placeholder bars -->
    <g transform="translate(30, 30)">
      <rect x="0" y="0" width="240" height="12" fill="#00d4ff" opacity="0.4" rx="6"/>
      <rect x="0" y="20" width="180" height="8" fill="#8b5cf6" opacity="0.4" rx="4"/>
      <rect x="0" y="35" width="200" height="8" fill="#f471b5" opacity="0.4" rx="4"/>
      <rect x="0" y="50" width="160" height="8" fill="#10b981" opacity="0.4" rx="4"/>

      <!-- Icon placeholder -->
      <circle cx="220" cy="30" r="20" fill="#00d4ff" opacity="0.3" filter="url(#glow)"/>
      <rect x="210" y="20" width="20" height="4" fill="#f0f4ff" opacity="0.8" rx="2"/>
      <rect x="210" y="26" width="20" height="4" fill="#f0f4ff" opacity="0.8" rx="2"/>
      <rect x="210" y="32" width="20" height="4" fill="#f0f4ff" opacity="0.8" rx="2"/>
      <rect x="210" y="38" width="20" height="4" fill="#f0f4ff" opacity="0.8" rx="2"/>
    </g>
  </g>

  <!-- Floating elements -->
  <g opacity="0.3">
    <circle cx="80" cy="30" r="4" fill="#8b5cf6" filter="url(#glow)"/>
    <circle cx="320" cy="50" r="6" fill="#00d4ff" filter="url(#glow)"/>
    <circle cx="360" cy="180" r="5" fill="#f471b5" filter="url(#glow)"/>
    <circle cx="40" cy="200" r="3" fill="#10b981" filter="url(#glow)"/>
  </g>

  <!-- Background geometric elements -->
  <g opacity="0.1">
    <polygon points="350,20 370,30 360,50 340,40" fill="#00d4ff"/>
    <polygon points="30,200 50,210 40,230 20,220" fill="#8b5cf6"/>
  </g>
</svg>
