<svg viewBox="0 0 400 240" xmlns="http://www.w3.org/2000/svg">
  <defs>
    <linearGradient id="pythonGrad" x1="0%" y1="0%" x2="100%" y2="100%">
      <stop offset="0%" style="stop-color:#00d4ff;stop-opacity:0.8" />
      <stop offset="50%" style="stop-color:#8b5cf6;stop-opacity:0.6" />
      <stop offset="100%" style="stop-color:#f471b5;stop-opacity:0.8" />
    </linearGradient>
    <filter id="glow">
      <feGaussianBlur stdDeviation="3" result="coloredBlur"/>
      <feMerge>
        <feMergeNode in="coloredBlur"/>
        <feMergeNode in="SourceGraphic"/>
      </feMerge>
    </filter>
  </defs>

  <rect width="400" height="240" fill="#1a1a24"/>
  <rect width="400" height="240" fill="url(#pythonGrad)" opacity="0.1"/>

  <!-- Code structure visualization -->
  <g transform="translate(50, 40)" fill="#00d4ff" opacity="0.8">
    <rect x="0" y="0" width="60" height="8" rx="4" filter="url(#glow)"/>
    <rect x="0" y="16" width="40" height="6" rx="3" opacity="0.7"/>
    <rect x="0" y="28" width="50" height="6" rx="3" opacity="0.7"/>

    <rect x="80" y="0" width="70" height="8" rx="4" filter="url(#glow)"/>
    <rect x="80" y="16" width="45" height="6" rx="3" opacity="0.7"/>
    <rect x="80" y="28" width="60" height="6" rx="3" opacity="0.7"/>

    <rect x="170" y="0" width="55" height="8" rx="4" filter="url(#glow)"/>
    <rect x="170" y="16" width="35" height="6" rx="3" opacity="0.7"/>
    <rect x="170" y="28" width="45" height="6" rx="3" opacity="0.7"/>
  </g>

  <!-- Folder structure -->
  <g transform="translate(50, 100)" fill="#8b5cf6" opacity="0.6">
    <path d="M0,0 L12,0 L16,8 L80,8 L80,32 L0,32 Z" filter="url(#glow)"/>
    <path d="M20,16 L32,16 L36,24 L100,24 L100,48 L20,48 Z" opacity="0.8"/>
    <path d="M40,32 L52,32 L56,40 L120,40 L120,64 L40,64 Z" opacity="0.7"/>
  </g>

  <!-- Python logo inspired element -->
  <g transform="translate(280, 60)" fill="#f471b5" opacity="0.8">
    <circle cx="20" cy="20" r="15" filter="url(#glow)"/>
    <circle cx="40" cy="40" r="12" opacity="0.7"/>
    <path d="M15,15 Q30,5 45,20 Q50,35 35,45 Q20,50 10,35 Q5,20 15,15" opacity="0.6"/>
  </g>

  <text x="200" y="200" text-anchor="middle" fill="#f0f4ff" font-family="Inter, sans-serif" font-size="24" font-weight="700" opacity="0.9">Python Structure</text>
</svg>

